<svg xmlns="http://www.w3.org/2000/svg" viewBox="0 0 119.87 235.04"><defs><style>.cls-1{fill:#ff033f;}</style></defs><g id="Layer_2" data-name="Layer 2"><g id="Layer_1-2" data-name="Layer 1"><path class="cls-1" d="M.9,95.55c-3.58,14,3.76,41.57,17.87,72.19,11,23.88,31,53.18,41.79,66.1a3.35,3.35,0,0,0,5.4-.35c8-12.43,24.63-58.91,29.82-74.85,9.88-30.28,12.07-39,19.25-64.12C126.23,55.36,118.19,21,88.76,1.16,83.44-2.43,61.83,3,69,8.06,90.22,23,96.07,31.68,98.66,47.63c2.11,13,3.82,42.34-30.09,40.47-13.87-.76-26.74-9.91-43.17-9.91S2.65,88.64.9,95.55Z"/><circle class="cls-1" cx="59.93" cy="50.73" r="25.43"/></g></g></svg>