<svg xmlns="http://www.w3.org/2000/svg" viewBox="0 0 24.12 32"><defs><style>.cls-1,.cls-2{fill:#006627;}.cls-2{stroke:#e0ffec;stroke-miterlimit:10;stroke-width:3.21px;}</style></defs><g id="Layer_2" data-name="Layer 2"><g id="Layer_1-2" data-name="Layer 1"><path class="cls-1" d="M15.33,8.63c3.59.55,1.66,6.63-.2,12.43-.63,2-2.38,6.85-3.71,9.85a1.84,1.84,0,0,1-3.16.34A56.13,56.13,0,0,1,3,22.5C.74,17.66-.42,13.31.14,11.1A3.68,3.68,0,0,1,4,8.35c2.6,0,3.79,1.1,6,1C12.6,9.2,13.58,8.37,15.33,8.63Z"/><circle class="cls-1" cx="9.47" cy="4.02" r="4.02"/><path class="cls-2" d="M12,22,5.77,16.89a.86.86,0,0,1-.12-1.23l1.12-1.35A.86.86,0,0,1,8,14.19l4.19,3.46,7.42-9a.87.87,0,0,1,1.23-.11L22.2,9.67a.88.88,0,0,1,.11,1.24l-9.09,11A.86.86,0,0,1,12,22Z"/><path class="cls-1" d="M12,22,5.77,16.89a.86.86,0,0,1-.12-1.23l1.12-1.35A.86.86,0,0,1,8,14.19l4.19,3.46,7.42-9a.87.87,0,0,1,1.23-.11L22.2,9.67a.88.88,0,0,1,.11,1.24l-9.09,11A.86.86,0,0,1,12,22Z"/></g></g></svg>