<svg xmlns="http://www.w3.org/2000/svg" viewBox="0 0 23.17 32"><defs><style>.cls-1{fill:#aa8409;}.cls-2{fill:#fef6cd;}</style></defs><g id="Layer_2" data-name="Layer 2"><g id="Layer_1-2" data-name="Layer 1"><path class="cls-1" d="M15.33,8.63c3.59.55,1.66,6.63-.2,12.43-.63,2-2.38,6.85-3.71,9.85a1.84,1.84,0,0,1-3.16.34A56.13,56.13,0,0,1,3,22.5C.74,17.66-.42,13.31.14,11.1A3.68,3.68,0,0,1,4,8.35c2.6,0,3.79,1.1,6,1C12.6,9.2,13.58,8.37,15.33,8.63Z"/><circle class="cls-1" cx="9.47" cy="4.02" r="4.02"/><circle class="cls-2" cx="14.4" cy="19.24" r="8.77"/><path class="cls-1" d="M14.4,12.15a7.09,7.09,0,1,0,7.09,7.09A7.09,7.09,0,0,0,14.4,12.15ZM14.4,25a5.72,5.72,0,1,1,5.72-5.72A5.72,5.72,0,0,1,14.4,25Zm1.77-3-2.43-1.76a.38.38,0,0,1-.14-.28V15.24a.35.35,0,0,1,.35-.35h.91a.35.35,0,0,1,.34.35v4l1.91,1.39a.34.34,0,0,1,.08.48l-.54.74a.35.35,0,0,1-.48.07Z"/></g></g></svg>