<?xml version="1.0" encoding="UTF-8" standalone="no"?>
<svg
   viewBox="0 0 32.000001 32"
   version="1.1"
   id="svg16"
   sodipodi:docname="mannequin_denied.svg"
   width="32"
   height="32"
   inkscape:version="1.1 (c4e8f9ed74, 2021-05-24)"
   xmlns:inkscape="http://www.inkscape.org/namespaces/inkscape"
   xmlns:sodipodi="http://sodipodi.sourceforge.net/DTD/sodipodi-0.dtd"
   xmlns="http://www.w3.org/2000/svg"
   xmlns:svg="http://www.w3.org/2000/svg">
  <sodipodi:namedview
     id="namedview18"
     pagecolor="#ffffff"
     bordercolor="#666666"
     borderopacity="1.0"
     inkscape:pageshadow="2"
     inkscape:pageopacity="0.0"
     inkscape:pagecheckerboard="0"
     showgrid="false"
     inkscape:zoom="21.327209"
     inkscape:cx="12.284777"
     inkscape:cy="15.637302"
     inkscape:window-width="1920"
     inkscape:window-height="1034"
     inkscape:window-x="0"
     inkscape:window-y="22"
     inkscape:window-maximized="1"
     inkscape:current-layer="svg16" />
  <defs
     id="defs4">
    <style
       id="style2">.cls-1{fill:#fcfdfd;}.cls-2{stroke:#232c32;stroke-miterlimit:10;stroke-width:3.35px;}</style>
  </defs>
  <g
     id="Layer_2"
     data-name="Layer 2"
     transform="matrix(1.0496225,0,0,1.0496225,6.3440256,0.01505122)">
    <g
       id="Layer_1-2"
       data-name="Layer 1">
      <path
         class="cls-1"
         d="m 14.6,8.22 c 3.42,0.52 1.58,6.31 -0.19,11.84 -0.6,1.87 -2.27,6.53 -3.53,9.38 a 1.76,1.76 0 0 1 -3,0.32 53.7,53.7 0 0 1 -5,-8.33 C 0.7,16.82 -0.4,12.68 0.13,10.57 A 3.51,3.51 0 0 1 3.82,8 C 6.29,8 7.43,9 9.52,8.93 12,8.76 12.93,8 14.6,8.22 Z"
         id="path6" />
      <circle
         class="cls-1"
         cx="9.0200005"
         cy="3.8299999"
         r="3.8299999"
         id="circle8" />
      <path
         class="cls-2"
         d="M 17.49,18.51 21,15 a 1.1,1.1 0 0 0 0,-1.56 l -0.77,-0.77 a 1.1,1.1 0 0 0 -1.56,0 l -3.49,3.49 -3.49,-3.49 a 1.1,1.1 0 0 0 -1.56,0 l -0.77,0.77 a 1.1,1.1 0 0 0 0,1.56 L 12.85,18.49 9.34,22 a 1.1,1.1 0 0 0 0,1.56 l 0.77,0.77 a 1.1,1.1 0 0 0 1.56,0 l 3.49,-3.49 3.49,3.49 a 1.1,1.1 0 0 0 1.56,0 l 0.77,-0.77 A 1.1,1.1 0 0 0 21,22 Z"
         id="path10" />
      <path
         class="cls-1"
         d="M 17.49,18.51 21,15 a 1.1,1.1 0 0 0 0,-1.56 l -0.77,-0.77 a 1.1,1.1 0 0 0 -1.56,0 l -3.49,3.49 -3.49,-3.49 a 1.1,1.1 0 0 0 -1.56,0 l -0.77,0.77 a 1.1,1.1 0 0 0 0,1.56 L 12.85,18.49 9.34,22 a 1.1,1.1 0 0 0 0,1.56 l 0.77,0.77 a 1.1,1.1 0 0 0 1.56,0 l 3.49,-3.49 3.49,3.49 a 1.1,1.1 0 0 0 1.56,0 l 0.77,-0.77 A 1.1,1.1 0 0 0 21,22 Z"
         id="path12" />
    </g>
  </g>
</svg>
