<?xml version="1.0" encoding="UTF-8" standalone="no"?>
<svg
   viewBox="0 0 31.999999 32"
   version="1.1"
   id="svg16"
   sodipodi:docname="mannequin_approved.svg"
   width="32"
   height="32"
   inkscape:version="1.1 (c4e8f9ed74, 2021-05-24)"
   xmlns:inkscape="http://www.inkscape.org/namespaces/inkscape"
   xmlns:sodipodi="http://sodipodi.sourceforge.net/DTD/sodipodi-0.dtd"
   xmlns="http://www.w3.org/2000/svg"
   xmlns:svg="http://www.w3.org/2000/svg">
  <sodipodi:namedview
     id="namedview18"
     pagecolor="#ffffff"
     bordercolor="#666666"
     borderopacity="1.0"
     inkscape:pageshadow="2"
     inkscape:pageopacity="0.0"
     inkscape:pagecheckerboard="0"
     showgrid="false"
     inkscape:zoom="27.21875"
     inkscape:cx="15.099885"
     inkscape:cy="14.19977"
     inkscape:window-width="1920"
     inkscape:window-height="1034"
     inkscape:window-x="0"
     inkscape:window-y="22"
     inkscape:window-maximized="1"
     inkscape:current-layer="Layer_2" />
  <defs
     id="defs4">
    <style
       id="style2">.cls-1,.cls-2{fill:#006627;}.cls-2{stroke:#e0ffec;stroke-miterlimit:10;stroke-width:3.21px;}</style>
  </defs>
  <g
     id="Layer_2"
     data-name="Layer 2"
     transform="translate(7.944474)">
    <g
       id="Layer_1-2"
       data-name="Layer 1"
       transform="translate(-1.4865142,0.00110047)">
      <path
         class="cls-1"
         d="m 15.33,8.63 c 3.59,0.55 1.66,6.63 -0.2,12.43 -0.63,2 -2.38,6.85 -3.71,9.85 A 1.84,1.84 0 0 1 8.26,31.25 56.13,56.13 0 0 1 3,22.5 C 0.74,17.66 -0.42,13.31 0.14,11.1 A 3.68,3.68 0 0 1 4,8.35 c 2.6,0 3.79,1.1 6,1 2.6,-0.15 3.58,-0.98 5.33,-0.72 z"
         id="path6" />
      <circle
         class="cls-1"
         cx="9.4700003"
         cy="4.02"
         r="4.02"
         id="circle8" />
      <path
         class="cls-2"
         d="M 12,22 5.77,16.89 A 0.86,0.86 0 0 1 5.65,15.66 L 6.77,14.31 A 0.86,0.86 0 0 1 8,14.19 l 4.19,3.46 7.42,-9 a 0.87,0.87 0 0 1 1.23,-0.11 l 1.36,1.13 a 0.88,0.88 0 0 1 0.11,1.24 l -9.09,11 A 0.86,0.86 0 0 1 12,22 Z"
         id="path10" />
      <path
         class="cls-1"
         d="M 12,22 5.77,16.89 A 0.86,0.86 0 0 1 5.65,15.66 L 6.77,14.31 A 0.86,0.86 0 0 1 8,14.19 l 4.19,3.46 7.42,-9 a 0.87,0.87 0 0 1 1.23,-0.11 l 1.36,1.13 a 0.88,0.88 0 0 1 0.11,1.24 l -9.09,11 A 0.86,0.86 0 0 1 12,22 Z"
         id="path12" />
    </g>
  </g>
</svg>
