<?xml version="1.0" encoding="UTF-8" standalone="no"?>
<svg
   viewBox="0 0 32 32"
   version="1.1"
   id="svg16"
   sodipodi:docname="mannequin_waiting.svg"
   width="32"
   height="32"
   inkscape:version="1.1 (c4e8f9ed74, 2021-05-24)"
   xmlns:inkscape="http://www.inkscape.org/namespaces/inkscape"
   xmlns:sodipodi="http://sodipodi.sourceforge.net/DTD/sodipodi-0.dtd"
   xmlns="http://www.w3.org/2000/svg"
   xmlns:svg="http://www.w3.org/2000/svg">
  <sodipodi:namedview
     id="namedview18"
     pagecolor="#ffffff"
     bordercolor="#666666"
     borderopacity="1.0"
     inkscape:pageshadow="2"
     inkscape:pageopacity="0.0"
     inkscape:pagecheckerboard="0"
     showgrid="false"
     inkscape:zoom="19.246563"
     inkscape:cx="12.106058"
     inkscape:cy="13.327055"
     inkscape:window-width="1920"
     inkscape:window-height="1034"
     inkscape:window-x="0"
     inkscape:window-y="22"
     inkscape:window-maximized="1"
     inkscape:current-layer="svg16" />
  <defs
     id="defs4">
    <style
       id="style2">.cls-1{fill:#aa8409;}.cls-2{fill:#fef6cd;}</style>
  </defs>
  <g
     id="Layer_2"
     data-name="Layer 2"
     transform="translate(6.434558)">
    <g
       id="Layer_1-2"
       data-name="Layer 1">
      <path
         class="cls-1"
         d="m 15.33,8.63 c 3.59,0.55 1.66,6.63 -0.2,12.43 -0.63,2 -2.38,6.85 -3.71,9.85 A 1.84,1.84 0 0 1 8.26,31.25 56.13,56.13 0 0 1 3,22.5 C 0.74,17.66 -0.42,13.31 0.14,11.1 A 3.68,3.68 0 0 1 4,8.35 c 2.6,0 3.79,1.1 6,1 2.6,-0.15 3.58,-0.98 5.33,-0.72 z"
         id="path6" />
      <circle
         class="cls-1"
         cx="9.4700003"
         cy="4.02"
         r="4.02"
         id="circle8" />
      <circle
         class="cls-2"
         cx="14.4"
         cy="19.24"
         r="8.7700005"
         id="circle10" />
      <path
         class="cls-1"
         d="m 14.4,12.15 a 7.09,7.09 0 1 0 7.09,7.09 7.09,7.09 0 0 0 -7.09,-7.09 z M 14.4,25 A 5.72,5.72 0 1 1 20.12,19.28 5.72,5.72 0 0 1 14.4,25 Z m 1.77,-3 -2.43,-1.76 A 0.38,0.38 0 0 1 13.6,19.96 v -4.72 a 0.35,0.35 0 0 1 0.35,-0.35 h 0.91 a 0.35,0.35 0 0 1 0.34,0.35 v 4 l 1.91,1.39 a 0.34,0.34 0 0 1 0.08,0.48 l -0.54,0.74 a 0.35,0.35 0 0 1 -0.48,0.07 z"
         id="path12" />
    </g>
  </g>
</svg>
